<svg width="14" height="8" viewBox="0 0 14 8" fill="none" xmlns="http://www.w3.org/2000/svg">
<path d="M1.41011 0H12.5901C12.7879 0.00082923 12.981 0.060284 13.145 0.170847C13.3089 0.281409 13.4365 0.438115 13.5114 0.621147C13.5863 0.804179 13.6053 1.00532 13.5659 1.19913C13.5265 1.39294 13.4305 1.57073 13.2901 1.71L7.71011 7.28999C7.61715 7.38372 7.50655 7.45811 7.38469 7.50888C7.26283 7.55965 7.13213 7.58578 7.00011 7.58578C6.8681 7.58578 6.7374 7.55965 6.61554 7.50888C6.49368 7.45811 6.38308 7.38372 6.29011 7.28999L0.710114 1.71C0.569693 1.57073 0.473722 1.39294 0.434336 1.19913C0.394951 1.00532 0.413921 0.804179 0.488846 0.621147C0.563772 0.438115 0.691289 0.281409 0.855272 0.170847C1.01926 0.060284 1.21234 0.00082923 1.41011 0V0Z" fill="#3F4E65"/>
</svg>
