<svg width="14" height="8" viewBox="0 0 14 8" fill="none" xmlns="http://www.w3.org/2000/svg">
<path d="M1.40987 8.00009H12.5899C12.7876 7.99926 12.9807 7.93981 13.1447 7.82924C13.3087 7.71868 13.4362 7.56198 13.5111 7.37894C13.5861 7.19591 13.605 6.99477 13.5656 6.80096C13.5263 6.60715 13.4303 6.42937 13.2899 6.29009L7.70987 0.710104C7.61691 0.616376 7.50631 0.541982 7.38445 0.491214C7.26259 0.440445 7.13188 0.414307 6.99987 0.414307C6.86786 0.414307 6.73715 0.440445 6.61529 0.491214C6.49343 0.541982 6.38283 0.616376 6.28987 0.710104L0.70987 6.29009C0.569449 6.42937 0.473478 6.60715 0.434092 6.80096C0.394707 6.99477 0.413676 7.19591 0.488602 7.37894C0.563528 7.56198 0.691044 7.71868 0.855028 7.82924C1.01901 7.93981 1.2121 7.99926 1.40987 8.00009Z" fill="#374957"/>
</svg>
